<svg xmlns="http://www.w3.org/2000/svg" width="43.36" height="33.322" viewBox="0 0 40 40"><g transform="translate(0)"><path d="M-815.08-383.964l.524.319q10.359,6.373,20.714,12.753a.661.661,0,0,0,.817,0q10.35-6.388,20.714-12.754l.5-.305c.011.205.025.344.025.483q0,10.337,0,20.675a3.324,3.324,0,0,1-3.5,3.512q-18.145.007-36.291,0a3.321,3.321,0,0,1-3.5-3.51q0-10.337,0-20.675Z" transform="translate(815.092 392.597)" fill="#787878"/><path d="M-771.914-477.32c.222.649-.218.975-.78,1.319q-10.242,6.273-20.458,12.586a.639.639,0,0,1-.788.014q-10.426-6.439-20.869-12.849a.659.659,0,0,1-.4-.7c.052-.513.005-1.039.09-1.544A3.3,3.3,0,0,1-812-481.211c.192-.009.385,0,.577,0,11.906,0,23.813.026,35.72-.024A3.543,3.543,0,0,1-771.914-477.32Z" transform="translate(815.215 481.239)" fill="#787878"/></g></svg>