<svg xmlns="http://www.w3.org/2000/svg" width="49.403" height="40.15" viewBox="0 0 40 40"><path d="M1268.8,71.863a20.214,20.214,0,0,1-5.822,1.6,10.168,10.168,0,0,0,4.457-5.606,20.3,20.3,0,0,1-6.436,2.459,10.144,10.144,0,0,0-17.272,9.246,28.772,28.772,0,0,1-20.891-10.592,10.143,10.143,0,0,0,3.136,13.533,10.09,10.09,0,0,1-4.59-1.27c0,.043,0,.086,0,.129a10.14,10.14,0,0,0,8.131,9.937,10.151,10.151,0,0,1-4.577.176,10.145,10.145,0,0,0,9.469,7.038,20.458,20.458,0,0,1-15.006,4.2,28.671,28.671,0,0,0,15.536,4.555c18.643,0,28.839-15.444,28.839-28.84q0-.659-.031-1.311a20.576,20.576,0,0,0,5.058-5.247Zm0,0" transform="translate(-1219.393 -67.11)" fill="#787878"/></svg>