<svg xmlns="http://www.w3.org/2000/svg" width="41.308" height="53.099" viewBox="0 0 40 40"><path d="M1512.547,110.855c-3.233-.251-4.591-1.853-7.125-3.392-1.393,7.31-3.1,14.317-8.14,17.978-1.559-11.05,2.285-19.347,4.07-28.155-3.044-5.122.365-15.432,6.784-12.892,7.9,3.124-6.839,19.045,3.054,21.033,10.328,2.076,14.544-17.921,8.138-24.425-9.254-9.391-26.937-.215-24.762,13.229.529,3.287,3.927,4.284,1.356,8.82-5.923-1.312-7.689-5.983-7.462-12.211.366-10.194,9.16-17.332,17.979-18.32,11.154-1.248,21.622,4.1,23.067,14.588,1.627,11.842-5.035,24.666-16.961,23.747Zm0,0" transform="translate(-1488.442 -72.341)" fill="#787878"/></svg>