<svg xmlns="http://www.w3.org/2000/svg" width="27" height="41" viewBox="0 0 54.269 83.632"><g transform="translate(-796.429 -554.692)"><path d="M808.512,581.26c.119-5.911,1.435-10.995,4.592-15.5a24.992,24.992,0,0,1,15.151-10.111c8.371-2.008,16.328-.933,23.561,3.88,6.419,4.271,9.721,10.478,10.752,18.043.755,5.54-.659,10.584-3.092,15.463a154.023,154.023,0,0,1-9.308,15.391,140.981,140.981,0,0,0-9.708,16.246,31.947,31.947,0,0,0-3.17,9.985c-.093.779-.078,1.572-.179,2.35a1.421,1.421,0,0,1-1.576,1.313,1.4,1.4,0,0,1-1.476-1.418c-.128-5.061-1.95-9.608-4.214-14.021a195.34,195.34,0,0,0-10.361-16.87,107.993,107.993,0,0,1-8.476-14.686C809.519,587.977,808.4,584.529,808.512,581.26Zm32.86-.255a5.729,5.729,0,1,0-5.766,5.82A5.7,5.7,0,0,0,841.371,581Z" transform="translate(-12.074 0)" fill="#e99ea3"/></g></svg>